<?xml version="1.0" encoding="utf-8"?>
<svg version="1.1" id="Layer_1"
xmlns="http://www.w3.org/2000/svg"
xmlns:xlink="http://www.w3.org/1999/xlink"
width="550px" height="400px"
xml:space="preserve">
<g id="PathID_1" transform="matrix(6.00169, 0, 0, 6.00169, 76.7, 19.65)" opacity="1">
<path style="fill:#FFAE00;fill-opacity:1" d="M41 21.85L33 39.2Q32.15 41.05 31.55 40.9Q30.95 40.8 30.95 38.75L30.95 33.35Q30.95 32.35 30.2 31.6Q29.45 30.9 28.45 30.9L22.85 30.9Q20.85 30.9 20.7 30.3Q20.55 29.65 22.4 28.8L39.8 20.65L41.05 20.55Q41.4 20.9 41 21.85M61.85 30.95Q61.85 43.75 52.8 52.8Q43.7 61.85 30.9 61.85Q18.1 61.85 9.05 52.8Q0 43.75 0 30.95Q0 18.15 9.05 9.05Q18.1 0 30.9 0Q43.75 0 52.8 9.05Q61.85 18.15 61.85 30.95M46.55 15.35Q40.05 8.9 30.95 8.9Q21.8 8.9 15.35 15.35Q8.9 21.85 8.9 30.95Q8.9 40.1 15.35 46.6Q21.8 53.05 30.95 53.05Q40.1 53.05 46.55 46.6Q53 40.1 53 30.95Q53 21.85 46.55 15.35" />
</g>
</svg>
